<svg width="100" height="43" viewBox="0 0 100 43" fill="none" xmlns="http://www.w3.org/2000/svg">
<g clip-path="url(#clip0_283_1846)">
<path d="M25.9199 39.62H22.6399V40.54H25.9199V39.62Z" fill="#1E1B19"/>
<path d="M30.26 38.34V39.08C30.5 38.54 30.96 38.26 31.62 38.26V39.3C31.26 39.28 30.94 39.36 30.66 39.56C30.38 39.76 30.26 40.08 30.26 40.54V42.76H29.3V38.34H30.26Z" fill="#1E1B19"/>
<path d="M36.3999 40.96H32.8799C32.9599 41.3 33.1199 41.54 33.3599 41.72C33.6199 41.9 33.9199 42 34.2999 42C34.6799 42 35.1799 41.82 35.4399 41.46L36.2199 41.92C35.7799 42.56 35.1399 42.88 34.2799 42.88C33.4199 42.88 32.9799 42.66 32.5399 42.22C32.0999 41.78 31.8799 41.22 31.8799 40.54C31.8799 39.86 32.0999 39.34 32.5399 38.88C32.9799 38.44 33.5399 38.2 34.2199 38.2C34.8999 38.2 35.3999 38.42 35.8199 38.88C36.2399 39.34 36.4399 39.88 36.4399 40.54C36.4399 41.2 36.4399 40.8 36.3999 40.94M32.8799 40.18H35.4799C35.4199 39.84 35.2599 39.56 35.0399 39.38C34.8199 39.2 34.5399 39.1 34.2199 39.1C33.8999 39.1 33.5799 39.2 33.3399 39.4C33.0999 39.6 32.9599 39.86 32.8799 40.2V40.18Z" fill="#1E1B19"/>
<path d="M37.9601 39.56C37.9601 39.7 38.0401 39.8 38.1801 39.9C38.3201 39.98 38.5201 40.06 38.8001 40.14C39.0001 40.18 39.1801 40.24 39.3401 40.3C39.5001 40.36 39.6601 40.44 39.8201 40.54C40.0001 40.64 40.1201 40.78 40.2201 40.94C40.3201 41.1 40.3601 41.3 40.3401 41.52C40.3401 41.94 40.1801 42.28 39.8401 42.52C39.5001 42.76 39.1001 42.88 38.6201 42.88C38.1401 42.88 37.8001 42.78 37.5001 42.6C37.1801 42.42 36.9601 42.16 36.8201 41.84L37.6401 41.36C37.7801 41.78 38.1201 42 38.6201 42C39.1201 42 39.3801 41.84 39.3801 41.5C39.3801 41.16 39.1001 41.06 38.5401 40.94C38.3201 40.88 38.1401 40.84 38.0001 40.78C37.8601 40.72 37.7001 40.66 37.5201 40.54C37.3401 40.44 37.2201 40.3 37.1201 40.14C37.0201 39.98 36.9801 39.78 37.0001 39.56C37.0001 39.16 37.1601 38.82 37.4601 38.58C37.7801 38.34 38.1601 38.2 38.6201 38.2C39.0801 38.2 39.3201 38.28 39.6001 38.44C39.8801 38.6 40.1001 38.82 40.2601 39.12L39.4601 39.58C39.3201 39.24 39.0401 39.08 38.6201 39.08C38.2001 39.08 38.2801 39.12 38.1601 39.2C38.0401 39.28 37.9801 39.4 37.9801 39.54" fill="#1E1B19"/>
<path d="M43.4601 38.34V39.26H42.3601V41.38C42.3601 41.56 42.4001 41.7 42.4801 41.78C42.5601 41.86 42.6801 41.9 42.8401 41.92C43.0001 41.92 43.2001 41.92 43.4401 41.92V42.78C42.7001 42.86 42.1801 42.8 41.8601 42.58C41.5401 42.36 41.3801 41.96 41.3801 41.4V39.28H40.5601V38.36H41.3801V37.4L42.3401 37.12V38.36H43.4401L43.4601 38.34Z" fill="#1E1B19"/>
<path d="M47.6599 38.9797V38.3597H48.6199V42.7797H47.6599V42.1397C47.2999 42.6397 46.7799 42.8997 46.1199 42.8997C45.4599 42.8997 44.9999 42.6797 44.5599 42.2197C44.1199 41.7797 43.9199 41.2197 43.9199 40.5597C43.9199 39.8997 44.1399 39.3597 44.5599 38.8997C44.9999 38.4597 45.4999 38.2197 46.1199 38.2197C46.7399 38.2197 47.2999 38.4597 47.6599 38.9597M45.2599 41.5797C45.5199 41.8397 45.8599 41.9797 46.2599 41.9797C46.6599 41.9797 46.9999 41.8397 47.2599 41.5797C47.5199 41.2997 47.6599 40.9597 47.6599 40.5597C47.6599 40.1597 47.5199 39.8197 47.2599 39.5597C46.9999 39.2797 46.6599 39.1597 46.2599 39.1597C45.8599 39.1597 45.5199 39.2997 45.2599 39.5597C44.9999 39.8197 44.8599 40.1597 44.8599 40.5597C44.8599 40.9597 44.9999 41.2997 45.2599 41.5797Z" fill="#1E1B19"/>
<path d="M52.7199 40.7203V38.3403H53.6799V42.7603H52.7199V42.2003C52.4199 42.6603 51.9599 42.8803 51.3399 42.8803C50.7199 42.8803 50.4199 42.7203 50.0999 42.3803C49.7999 42.0603 49.6399 41.6003 49.6399 41.0403V38.3203H50.5999V40.9403C50.5999 41.2803 50.6799 41.5203 50.8599 41.7003C51.0399 41.8803 51.2799 41.9603 51.5799 41.9603C51.8799 41.9603 52.1999 41.8603 52.3999 41.6403C52.5999 41.4203 52.6999 41.1003 52.6999 40.6803" fill="#1E1B19"/>
<path d="M55.74 38.34V39.08C55.98 38.54 56.44 38.26 57.1 38.26V39.3C56.74 39.28 56.42 39.36 56.14 39.56C55.86 39.76 55.74 40.08 55.74 40.54V42.76H54.78V38.34H55.74Z" fill="#1E1B19"/>
<path d="M61.1001 38.9797V38.3597H62.0601V42.7797H61.1001V42.1397C60.7401 42.6397 60.2201 42.8997 59.5601 42.8997C58.9001 42.8997 58.4401 42.6797 58.0001 42.2197C57.5601 41.7797 57.3601 41.2197 57.3601 40.5597C57.3601 39.8997 57.5801 39.3597 58.0001 38.8997C58.4401 38.4597 58.9401 38.2197 59.5601 38.2197C60.1801 38.2197 60.7401 38.4597 61.1001 38.9597M58.7001 41.5797C58.9601 41.8397 59.3001 41.9797 59.7001 41.9797C60.1001 41.9797 60.4401 41.8397 60.7001 41.5797C60.9601 41.2997 61.1001 40.9597 61.1001 40.5597C61.1001 40.1597 60.9601 39.8197 60.7001 39.5597C60.4401 39.2797 60.1001 39.1597 59.7001 39.1597C59.3001 39.1597 58.9601 39.2997 58.7001 39.5597C58.4401 39.8197 58.3001 40.1597 58.3001 40.5597C58.3001 40.9597 58.4401 41.2997 58.7001 41.5797Z" fill="#1E1B19"/>
<path d="M65.4999 38.24C66.0199 38.24 66.4199 38.4 66.7399 38.74C67.0399 39.06 67.1999 39.52 67.1999 40.08V42.8H66.2399V40.18C66.2399 39.84 66.1599 39.6 65.9799 39.42C65.7999 39.24 65.5599 39.16 65.2599 39.16C64.9599 39.16 64.6399 39.26 64.4399 39.48C64.2399 39.7 64.1399 40.02 64.1399 40.44V42.82H63.1799V38.4H64.1399V38.96C64.4399 38.5 64.8999 38.28 65.5199 38.28" fill="#1E1B19"/>
<path d="M70.7 38.34V39.26H69.6V41.38C69.6 41.56 69.6401 41.7 69.7201 41.78C69.8001 41.86 69.92 41.9 70.08 41.92C70.24 41.92 70.44 41.92 70.68 41.92V42.78C69.94 42.86 69.42 42.8 69.1 42.58C68.78 42.36 68.6201 41.96 68.6201 41.4V39.28H67.8V38.36H68.6201V37.4L69.58 37.12V38.36H70.68L70.7 38.34Z" fill="#1E1B19"/>
<path d="M77.1599 39.62H73.8799V40.54H77.1599V39.62Z" fill="#1E1B19"/>
<path d="M24.9 15.3C24.56 16.54 23.8 17.62 23.02 18.62C20.5 21.4 16.92 23.06 13.26 23.66C10.76 23.92 8.11995 23.86 5.75995 22.88C5.91995 23.32 6.33995 23.66 6.57995 24.1C8.31995 26.1 10.98 27.38 13.64 27.12C17.64 27.02 21.44 24.92 23.94 21.86C24.92 20.76 25.86 19.6 26.76 18.44C27.52 17.4 28.38 16.42 29.02 15.3C27.66 15.3 26.28 15.3 24.9 15.3ZM17.32 7.56C12.44 7.74 7.83995 10.88 5.75995 15.28C4.87995 17.12 4.69995 19.22 5.11995 21.22C5.21995 21.32 5.31995 21.4 5.43995 21.48C6.51995 22.08 7.71995 22.44 8.93995 22.56C12.88 23.06 16.98 21.96 20.18 19.62C21.64 18.48 22.96 17.06 23.64 15.3C22.68 15.3 21.72 15.3 20.74 15.3C21.08 14.94 21.4 14.54 21.82 14.26C22.54 14.22 23.28 14.26 24 14.26C24.42 12.62 24.26 10.72 23.14 9.38C22.4799 8.76 21.7 8.28 20.84 8.02C21.58 10.92 20.54 14.16 18.26 16.1C17.34 16.9 16.22 17.42 15.08 17.8C14.68 17.8 14 17.98 13.8 17.48C13.62 17.14 13.92 16.64 14.32 16.66C15.56 16.52 16.68 15.86 17.6 15.06C19.52 13.24 20.62 10.22 19.4 7.68C18.72 7.6 18.02 7.48 17.34 7.62L17.32 7.56ZM12.34 4.4C9.45995 4.52 6.65995 5.68 4.59995 7.68C2.03995 10.04 0.679951 13.84 1.69995 17.24C2.09995 18.48 2.83995 19.6 3.85995 20.4C3.51995 17.58 4.21995 14.62 5.79995 12.24C6.59995 10.96 7.67995 9.88 8.81995 8.92C11.42 6.82 14.8 5.98 18.08 5.96C17.86 5.66 17.5 5.5 17.2 5.3C15.72 4.52 14 4.26 12.34 4.38V4.4ZM51.32 1.32C49.34 1.54 47.4 2.08 45.6399 3.02C42.5 4.72 40.2 7.58 38.24 10.5C37.32 11.72 36.5 13 35.6399 14.24C36.56 14.24 37.48 14.24 38.42 14.24C40.38 11.86 42.4 9.52 44.68 7.44C46.74 5.48 48.88 3.6 51.16 1.92C51.4 1.68 51.7999 1.58 51.9799 1.28C51.82 1.28 51.5 1.32 51.34 1.34L51.32 1.32ZM40.62 4.14C44.62 1.6 49.32 0.0600005 54.0599 0.12C54.4599 0.12 55.26 0.18 54.9 0.84C53.42 1.72 52.04 2.76 50.74 3.9C46.82 7.36 43.52 11.44 40.32 15.56C38.58 17.86 36.86 20.2 35.52 22.78C35.06 23.74 34.5 24.82 34.8 25.92C34.86 26.46 35.46 26.8 35.96 26.68C36.98 26.38 37.8 25.68 38.52 24.92C39.6 23.94 40.5 22.78 41.46 21.7C40.86 22.78 40.12 23.88 40 25.16C39.1 26.04 38.2 26.96 37.04 27.48C36.06 28 34.66 27.96 33.9 27.06C33.6399 26.56 33.44 26.02 33.4 25.46C33.4 23.66 33.92 21.9 34.6399 20.28C35.4 18.52 36.42 16.86 37.52 15.3C36.6 15.3 35.68 15.3 34.76 15.3C33.7 16.6 32.62 17.9 31.4 19.06C27.46 23.14 22.62 26.68 16.98 27.88C14.66 28.36 12.16 28.5 9.87995 27.78C7.77995 27.02 5.93995 25.56 4.81995 23.64C4.51995 23.14 4.39995 22.56 4.09995 22.06C3.39995 21.56 2.63995 21.1 2.11995 20.4C1.01995 19.18 0.399951 17.58 0.199951 15.96V13.54C0.379951 13.12 0.339951 12.64 0.459951 12.22C1.19995 8.8 3.67995 5.9 6.71995 4.28C9.51995 2.92 12.8 2.46 15.82 3.24C17.54 3.72 18.96 4.9 19.98 6.36C22.18 6.88 24.24 8.36 25.02 10.54C25.54 11.72 25.3 13.02 25.24 14.26C26.8 14.28 28.36 14.28 29.92 14.26C30.22 14 30.42 13.66 30.66 13.36C33.5 9.84 36.76 6.6 40.6 4.2L40.62 4.14Z" fill="#A60D16"/>
<path d="M48.1399 17.02C46.5599 19.02 44.9599 21.02 43.3799 23.02C42.7599 23.8 42.0999 24.58 41.7599 25.54C41.6199 25.86 41.6199 26.32 41.8999 26.58C42.1799 26.78 42.5199 26.66 42.8199 26.58C43.7599 26.24 44.5399 25.58 45.2999 24.94C46.5999 23.7 47.7599 22.34 48.8799 20.94C49.9999 19.68 51.0199 18.34 52.0599 17C50.7599 17 49.4399 16.98 48.1399 17M94.9199 16.86C93.4399 17.54 92.3999 18.82 91.2599 19.92C91.1799 20.04 91.0999 20.16 91.0399 20.3C92.4599 19.44 94.0999 18.74 95.1599 17.42C95.3999 17.28 95.5399 16.42 94.8999 16.88L94.9199 16.86ZM63.9999 16.86C63.5399 16.94 63.1199 17.18 62.7199 17.4C61.2799 18.34 60.0599 19.54 58.9399 20.82C57.9199 21.9 56.9799 23.08 56.2799 24.4C55.9999 25.06 55.6799 25.74 55.7999 26.5C55.9599 26.62 56.1599 26.76 56.3599 26.7C57.1399 26.46 57.8399 25.98 58.4599 25.44C60.3999 23.58 61.9999 21.42 63.6599 19.32C64.0799 18.68 64.6999 18.04 64.6799 17.24C64.5599 16.98 64.3399 16.62 63.9799 16.88L63.9999 16.86ZM42.6199 20.28C43.5399 19.22 44.3399 18.08 45.2399 17.02C44.4599 17 43.6799 17.02 42.8999 17.02C43.0599 16.64 43.3599 16.32 43.5999 15.98C44.4199 15.94 45.2399 15.98 46.0599 15.96C47.3999 14.32 48.6799 12.64 50.0399 11C50.7799 11.44 51.6999 11.22 52.3199 10.68C52.6199 10.42 52.8599 10.88 53.0199 11.08C51.7199 12.72 50.3199 14.3 49.0599 15.96C50.1799 15.98 51.3199 15.96 52.4399 15.96C52.7399 16.14 52.9199 15.92 53.0799 15.74C54.3199 14.16 55.5799 12.6 56.8199 11.04C56.9199 10.9 57.0599 11.06 57.1799 11.1C57.8399 11.5 58.5999 11.02 59.1599 10.68C59.4199 10.44 59.6999 10.86 59.8399 11.06C58.5999 12.74 57.1399 14.26 55.8999 15.96C56.6599 15.98 57.4399 15.96 58.2199 15.96C57.9999 16.32 57.7799 16.66 57.5399 17C56.6999 17.04 55.8399 16.96 54.9999 17.04C53.6999 18.7 52.3799 20.32 51.0799 21.98C50.3399 22.94 49.5399 23.86 48.8999 24.88C48.6799 25.34 48.3799 25.9 48.5999 26.42C48.9199 26.88 49.5799 26.64 49.9799 26.46C51.3999 25.8 52.4799 24.6 53.5599 23.52C54.4599 22.48 55.3599 21.46 56.1799 20.38C57.8599 18.48 59.8799 16.74 62.3399 16C63.1599 15.82 64.0599 15.62 64.8799 15.9C65.2399 16 65.3599 16.42 65.6599 16.62C65.8399 16.38 65.9999 16.1 66.1799 15.86C66.6399 15.92 67.0599 16.26 67.5599 16.12C68.2599 16.06 68.8399 15.64 69.5199 15.48C69.1999 16.1 68.6399 16.54 68.2399 17.08C66.0799 19.78 63.9999 22.52 61.9599 25.3C61.7599 25.66 61.3999 26.18 61.6799 26.58C62.0199 26.84 62.4599 26.58 62.7999 26.42C64.7799 25.28 66.1199 23.38 67.4999 21.62C68.1199 20.9 68.5199 20.04 69.1999 19.38C70.8399 17.66 72.8799 16.16 75.2799 15.76C75.9199 15.72 76.7199 15.68 77.1799 16.24C77.7599 17.04 77.4599 18.12 76.9999 18.9C76.5399 19.78 75.4799 20.46 74.4799 20.1C73.8399 19.8 73.7399 18.9 74.0399 18.34C74.4799 17.6 75.3799 17.38 75.9799 16.8C75.6399 16.82 75.2999 16.92 74.9999 17.08C73.4999 17.8 72.4199 19.12 71.3799 20.38C70.5999 21.38 69.7999 22.42 69.3599 23.62C68.9599 24.52 68.7799 25.62 69.3599 26.48C69.8399 26.8 70.4799 26.74 70.9599 26.48C73.0799 25.34 74.5199 23.36 76.0199 21.56C80.1799 16.12 84.3199 10.66 88.4799 5.22001C88.6999 5.16001 88.9399 5.46001 89.1999 5.36001C90.4799 5.44001 91.3799 4.46001 92.3399 3.78001C92.4399 3.70001 92.7999 3.50001 92.6199 3.78001C89.2999 8.00001 85.9799 12.2 82.6599 16.4C83.5199 15.92 84.4799 15.52 85.4799 15.78C85.8199 15.92 86.2399 16.04 86.3999 16.4C86.9199 17.24 86.7199 18.32 86.4199 19.2C85.7399 20.82 84.3599 22 83.1599 23.26C82.4399 24.26 81.2399 24.92 80.8599 26.14C80.7399 26.38 80.9399 26.72 81.2199 26.68C81.8199 26.58 82.3599 26.28 82.8399 25.9C84.5799 24.56 85.9799 22.86 87.2799 21.12C88.4799 19.28 90.2399 17.88 92.0799 16.72C93.1799 16.12 94.4199 15.6 95.6799 15.78C96.1799 15.86 96.5199 16.32 96.5799 16.8C96.6399 17.68 96.0199 18.44 95.3599 18.94C93.6999 20.28 91.7399 21.16 89.7799 22.02C89.2999 22.22 89.0599 22.74 88.7999 23.14C88.3799 23.84 87.9199 24.56 87.7799 25.38C87.7199 25.82 87.8599 26.42 88.3399 26.56C88.7999 26.82 89.3199 26.6 89.7799 26.44C90.8999 25.86 91.8799 25.04 92.7399 24.12C93.7599 22.96 94.7999 21.8 95.6999 20.54C95.9999 20.78 96.3399 20.98 96.5599 21.3C95.0399 23.36 93.3999 25.4 91.2799 26.88C90.1599 27.72 88.5999 28.06 87.3199 27.48C86.1799 26.98 85.9599 25.56 85.9799 24.46C85.2199 25.18 84.5399 25.96 83.6999 26.6C82.7599 27.34 81.5799 28.12 80.3399 27.66C79.3999 27.22 79.3799 25.96 79.5599 25.06C79.7599 23.14 81.1999 21.7 82.4599 20.38C83.2799 19.34 84.4399 18.56 84.9799 17.32C85.0399 17.18 85.0799 17 84.9199 16.9C83.9199 16.84 83.1399 17.54 82.3799 18.08C81.3399 18.9 80.4199 19.9 79.5999 20.96C78.0199 23.18 76.4199 25.36 74.9199 27.62C74.5599 27.72 74.2599 27.34 73.8799 27.44C73.1799 27.36 72.5399 27.76 71.8599 27.82C72.0399 27.32 72.5599 27.04 72.7599 26.56C71.8399 27.24 70.7799 27.92 69.5799 27.72C68.5399 27.72 67.4399 27.04 67.1799 26C66.9399 25.38 66.9599 24.72 66.9599 24.06C65.8199 25.32 64.6599 26.62 63.1399 27.44C62.4799 27.78 61.6799 27.88 60.9599 27.6C60.1399 27.2 60.1199 26.1 60.1399 25.32C59.1399 26.3 58.0599 27.3 56.6799 27.72C55.9799 27.8 55.2199 27.78 54.6799 27.26C54.1399 26.4 54.1199 25.34 54.2799 24.38C52.9799 25.62 51.7199 27.04 49.9599 27.64C49.1199 27.84 48.1399 27.88 47.4399 27.3C46.7999 26.72 46.8199 25.82 46.7799 25.04C45.7999 25.96 44.7799 26.92 43.5399 27.46C42.7999 27.84 41.9199 27.82 41.1399 27.64C40.1599 27.26 39.8799 26.08 39.9599 25.14C40.0599 23.86 40.8199 22.78 41.4199 21.68" fill="#1E1B19"/>
<path d="M98.84 8.98002C99.52 8.68002 100.06 9.54002 99.64 10.08C98.06 11.38 96.48 12.68 94.9 13.98C94.8 14.08 94.36 14.42 94.52 14.06C95.86 12.48 97.16 10.88 98.48 9.28002C98.56 9.14002 98.68 9.02002 98.84 8.96002" fill="#1E1B19"/>
</g>
<defs>
<clipPath id="clip0_283_1846">
<rect width="100" height="43" fill="white"/>
</clipPath>
</defs>
</svg>
